<svg xmlns="http://www.w3.org/2000/svg" version="1.1" xmlns:xlink="http://www.w3.org/1999/xlink" xmlns:svgjs="http://svgjs.dev/svgjs" width="1000" height="623" viewBox="0 0 1000 623"><g transform="matrix(1,0,0,1,-0.6060606060606233,0.2522267206477409)"><svg viewBox="0 0 396 247" data-background-color="#ffffff" preserveAspectRatio="xMidYMid meet" height="623" width="1000" xmlns="http://www.w3.org/2000/svg" xmlns:xlink="http://www.w3.org/1999/xlink"><g id="tight-bounds" transform="matrix(1,0,0,1,0.2400000000000091,-0.09999999999999432)"><svg viewBox="0 0 395.52 247.2" height="247.2" width="395.52"><g><svg></svg></g><g><svg viewBox="0 0 395.52 247.2" height="247.2" width="395.52"><g transform="matrix(1,0,0,1,75.54432,56.7633)"><svg viewBox="0 0 244.43135999999998 133.6734" height="133.6734" width="244.43135999999998"><g><svg viewBox="0 0 244.43135999999998 133.6734" height="133.6734" width="244.43135999999998"><g><svg viewBox="0 0 244.43135999999998 133.6734" height="133.6734" width="244.43135999999998"><g><svg viewBox="0 0 244.43135999999998 133.6734" height="133.6734" width="244.43135999999998"><g id="textblocktransform"><svg viewBox="0 0 244.43135999999998 133.6734" height="133.6734" width="244.43135999999998" id="textblock"><g><svg viewBox="0 0 244.43135999999998 133.6734" height="133.6734" width="244.43135999999998"><g transform="matrix(1,0,0,1,0,0)"><svg width="244.43135999999998" viewBox="-0.5 -31.5 57.599998474121094 31.5" height="133.6734" data-palette-color="#ff8785"><path d="M28.8-0.9L28.8 0 18.55 0 18.55-0.9 21.8-0.9 18.3-10.55 7.3-10.55 3.8-0.9 7.05-0.9 7.05 0-0.5 0-0.5-0.9 1.35-0.9Q2.05-0.9 2.3-1.6L2.3-1.6 13.3-31.5 15-31.5 26-1.6Q26.25-0.9 26.95-0.9L26.95-0.9 28.8-0.9ZM17.8-11.95L12.85-25.6 7.85-11.95 17.8-11.95ZM32.4-30.6L30.05-30.6 30.05-31.5 42.75-31.5Q49.1-31.5 53.1-27.3 57.1-23.1 57.1-15.75 57.1-8.4 53.1-4.2 49.1 0 42.75 0L42.75 0 30.05 0 30.05-0.9 32.4-0.9Q33.1-0.9 33.1-1.5L33.1-1.5 33.1-30Q33.1-30.6 32.4-30.6L32.4-30.6ZM42.75-30.1L42.75-30.1 37.2-30.1 37.2-1.4 42.75-1.4Q47.05-1.4 49.95-5.25 52.85-9.1 52.85-15.75 52.85-22.4 49.95-26.25 47.05-30.1 42.75-30.1Z" opacity="1" transform="matrix(1,0,0,1,0,0)" fill="#ff8785" class="wordmark-text-0" data-fill-palette-color="primary" id="text-0"></path></svg></g></svg></g></svg></g></svg></g></svg></g></svg></g></svg></g><path d="M247.618 50.763L247.618 5.329 11.075 5.329 11.075 241.871 247.618 241.871 247.618 196.437 235.563 196.437 235.563 229.817 23.13 229.817 23.13 17.383 235.563 17.383 235.563 50.763Z" fill="#ff8785" stroke="transparent" data-fill-palette-color="primary"></path></svg></g><defs></defs></svg><rect width="395.52" height="247.2" fill="none" stroke="none" visibility="hidden"></rect></g></svg></g></svg>